name pl06_filtered_grf.mot
datacolumns 37
datarows 11
range 0.002500 0.007500
endheader
time	1_ground_force_vx	1_ground_force_vy	1_ground_force_vz	1_ground_force_px	1_ground_force_py	1_ground_force_pz	1_ground_torque_x	1_ground_torque_y	1_ground_torque_z	2_ground_force_vx	2_ground_force_vy	2_ground_force_vz	2_ground_force_px	2_ground_force_py	2_ground_force_pz	2_ground_torque_x	2_ground_torque_y	2_ground_torque_z	3_ground_force_vx	3_ground_force_vy	3_ground_force_vz	3_ground_force_px	3_ground_force_py	3_ground_force_pz	3_ground_torque_x	3_ground_torque_y	3_ground_torque_z	4_ground_force_vx	4_ground_force_vy	4_ground_force_vz	4_ground_force_px	4_ground_force_py	4_ground_force_pz	4_ground_torque_x	4_ground_torque_y	4_ground_torque_z
            0.002500	            0.000000	           -0.000000	           -0.000000	            0.165178	            0.000000	            0.161360	           -0.000000	           -0.000000	            0.000000	           -0.000000	           -0.000000	           -0.000000	           -0.234587	            0.000000	            0.187931	           -0.000000	            0.000000	           -0.000000	          -45.355788	          274.630751	           95.546670	            0.412927	            1.262043	            1.873256	            2.276128	          -13.782030	           -4.794900	           43.885047	          362.970305	           96.293342	           -0.354271	            1.255676	            1.900632	            2.146893	           17.756809	            4.710750
            0.003000	            0.000000	           -0.000000	           -0.000000	            0.165178	            0.000000	            0.161360	           -0.000000	           -0.000000	            0.000000	           -0.000000	           -0.000000	           -0.000000	           -0.234587	            0.000000	            0.187931	           -0.000000	            0.000000	           -0.000000	          -45.193698	          274.610900	           95.519053	            0.412927	            1.262043	            1.873256	            2.268862	          -13.786307	           -4.795349	           43.828362	          363.069869	           96.419826	           -0.354271	            1.255676	            1.900632	            2.145789	           17.775508	            4.720610
            0.003500	            0.000000	           -0.000000	           -0.000000	            0.165178	            0.000000	            0.161360	           -0.000000	           -0.000000	            0.000000	           -0.000000	           -0.000000	           -0.000000	           -0.234587	            0.000000	            0.187931	           -0.000000	            0.000000	           -0.000000	          -45.035523	          274.593657	           95.493302	            0.412931	            1.262044	            1.873253	            2.261795	          -13.790773	           -4.795910	           43.774749	          363.176494	           96.546279	           -0.354270	            1.255673	            1.900630	            2.144794	           17.794248	            4.730396
            0.004000	            0.000000	           -0.000000	           -0.000000	            0.165178	            0.000000	            0.161360	           -0.000000	           -0.000000	            0.000000	           -0.000000	           -0.000000	           -0.000000	           -0.234587	            0.000000	            0.187931	           -0.000000	            0.000000	           -0.000000	          -44.881543	          274.579179	           95.469480	            0.412935	            1.262045	            1.873250	            2.254942	          -13.795427	           -4.796585	           43.724418	          363.290331	           96.672535	           -0.354269	            1.255669	            1.900629	            2.143915	           17.813015	            4.740091
            0.004500	            0.000000	           -0.000000	           -0.000000	            0.165178	            0.000000	            0.161360	           -0.000000	           -0.000000	            0.000000	           -0.000000	           -0.000000	           -0.000000	           -0.234587	            0.000000	            0.187931	           -0.000000	            0.000000	           -0.000000	          -44.732024	          274.567623	           95.447647	            0.412940	            1.262046	            1.873247	            2.248313	          -13.800268	           -4.797372	           43.677570	          363.411524	           96.798432	           -0.354268	            1.255666	            1.900628	            2.143161	           17.831792	            4.749683
            0.005000	            0.000000	           -0.000000	           -0.000000	            0.165178	            0.000000	            0.161360	           -0.000000	           -0.000000	            0.000000	           -0.000000	           -0.000000	           -0.000000	           -0.234587	            0.000000	            0.187931	           -0.000000	            0.000000	           -0.000000	          -44.587210	          274.559137	           95.427854	            0.412944	            1.262047	            1.873244	            2.241920	          -13.805296	           -4.798273	           43.634395	          363.540208	           96.923808	           -0.354267	            1.255663	            1.900627	            2.142538	           17.850565	            4.759156
            0.005500	            0.000000	           -0.000000	           -0.000000	            0.165178	            0.000000	            0.161360	           -0.000000	           -0.000000	            0.000000	           -0.000000	           -0.000000	           -0.000000	           -0.234587	            0.000000	            0.187931	           -0.000000	            0.000000	           -0.000000	          -44.447026	          274.553983	           95.409947	            0.412948	            1.262048	            1.873241	            2.235758	          -13.810514	           -4.799276	           43.594867	          363.676675	           97.047985	           -0.354265	            1.255659	            1.900625	            2.142043	           17.869330	            4.768473
            0.006000	            0.000000	           -0.000000	           -0.000000	            0.165178	            0.000000	            0.161360	           -0.000000	           -0.000000	            0.000000	           -0.000000	           -0.000000	           -0.000000	           -0.234587	            0.000000	            0.187931	           -0.000000	            0.000000	           -0.000000	          -44.311979	          274.552184	           95.394158	            0.412952	            1.262049	            1.873238	            2.229852	          -13.815917	           -4.800391	           43.559365	          363.820880	           97.171334	           -0.354264	            1.255656	            1.900624	            2.141693	           17.888066	            4.777646
            0.006500	            0.000000	           -0.000000	           -0.000000	            0.165178	            0.000000	            0.161360	           -0.000000	           -0.000000	            0.000000	           -0.000000	           -0.000000	           -0.000000	           -0.234587	            0.000000	            0.187931	           -0.000000	            0.000000	           -0.000000	          -44.182254	          274.553872	           95.380516	            0.412957	            1.262049	            1.873235	            2.224209	          -13.821502	           -4.801615	           43.528048	          363.972935	           97.293705	           -0.354263	            1.255653	            1.900622	            2.141496	           17.906763	            4.786662
            0.007000	            0.000000	           -0.000000	           -0.000000	            0.165178	            0.000000	            0.161360	           -0.000000	           -0.000000	            0.000000	           -0.000000	           -0.000000	           -0.000000	           -0.234587	            0.000000	            0.187931	           -0.000000	            0.000000	           -0.000000	          -44.058014	          274.559173	           95.369039	            0.412961	            1.262050	            1.873232	            2.218837	          -13.827268	           -4.802947	           43.501066	          364.132940	           97.414959	           -0.354262	            1.255650	            1.900621	            2.141456	           17.925411	            4.795510
            0.007500	            0.000000	           -0.000000	           -0.000000	            0.165178	            0.000000	            0.161360	           -0.000000	           -0.000000	            0.000000	           -0.000000	           -0.000000	           -0.000000	           -0.234587	            0.000000	            0.187931	           -0.000000	            0.000000	           -0.000000	          -43.939400	          274.568207	           95.359740	            0.412965	            1.262051	            1.873229	            2.213742	          -13.833213	           -4.804386	           43.478555	          364.300990	           97.534957	           -0.354260	            1.255647	            1.900619	            2.141579	           17.944002	            4.804180
